<?xml version="1.0" encoding="UTF-8"?>
<svg id="PRINT" xmlns="http://www.w3.org/2000/svg" viewBox="0 0 319.5 93.75">
  <defs>
    <style>
      .cls-1 {
        letter-spacing: .08em;
      }

      .cls-2 {
        letter-spacing: .08em;
      }

      .cls-3 {
        font-family: MefidowsDEMOVERSION, 'Mefidows DEMO VERSION';
        font-size: 68px;
      }

      .cls-3, .cls-4, .cls-5 {
        fill: #fff;
      }

      .cls-6 {
        letter-spacing: .07em;
      }

      .cls-7 {
        letter-spacing: .25em;
      }

      .cls-4 {
        stroke-width: 0px;
      }

      .cls-8 {
        letter-spacing: .03em;
      }

      .cls-9 {
        letter-spacing: .07em;
      }

      .cls-10 {
        letter-spacing: .22em;
      }

      .cls-11 {
        letter-spacing: .07em;
      }

      .cls-5 {
        font-family: RanoliaDemoRegular, RanoliaDemo;
        font-size: 25px;
      }

      .cls-12 {
        letter-spacing: .18em;
      }
    </style>
  </defs>
  <g id="CUSTOM-group">
    <path class="cls-4" d="M314.2,42.35c-2.15-2.15-5.66-2.15-7.81,0l-5.65,5.65c-.79-2.09-2.81-3.59-5.17-3.59h-5.97c-.85,0-1.22-.46-2.08-1.22-2.68-2.36-6.25-3.5-9.8-3.15-3.29.33-6.26,1.87-8.44,4.37h-7.08c-1.02,0-1.84.82-1.84,1.84v14.72c0,1.02.82,1.84,1.84,1.84h37.05c1.47,0,2.86-.57,3.9-1.62l11.04-11.04c2.15-2.15,2.15-5.66,0-7.81ZM267.96,59.14h-3.93v-11.04h3.93v11.04ZM311.6,47.56l-11.04,11.04c-.34.34-.82.54-1.3.54h-27.61v-11.8c1.6-2.08,3.88-3.37,6.44-3.62,2.54-.25,5.09.57,7,2.25.93.82,2.17,2.14,4.51,2.14h5.97c1.01,0,1.84.83,1.84,1.84s-.83,1.84-1.84,1.84h-7.52c-1.77,0-3.44.85-4.47,2.29-.6.82-.41,1.97.41,2.57.82.6,1.97.41,2.57-.41.34-.48.9-.76,1.49-.76h9.68c.49,0,.96-.19,1.3-.54l9.96-9.96c.72-.72,1.88-.72,2.6,0,.72.72.72,1.88,0,2.6Z"/>
    <path class="cls-4" d="M317.66,33.37h-1.9c-.83-12.83-10.37-23.29-22.53-25.55.32-.7.5-1.48.5-2.3,0-3.04-2.48-5.52-5.52-5.52s-5.52,2.48-5.52,5.52c0,.82.18,1.6.5,2.3-12.16,2.24-21.92,12.68-22.77,25.55h-1.9c-1.02,0-1.84.82-1.84,1.84s.82,1.84,1.84,1.84h59.14c1.02,0,1.84-.82,1.84-1.84s-.82-1.84-1.84-1.84ZM288.21,3.68c1.01,0,1.84.83,1.84,1.84s-.83,1.84-1.84,1.84-1.84-.83-1.84-1.84.83-1.84,1.84-1.84ZM264.11,33.37c.98-12.28,11.61-22.36,24.1-22.36s22.92,9.88,23.86,22.36h-47.95Z"/>
  </g>
  <path id="CUSTOM" class="cls-4" d="M312.06,83.83h-163.23c-2.07,0-3.75-1.27-3.75-2.84s1.68-2.83,3.75-2.83h163.23c2.07,0,3.75,1.27,3.75,2.83s-1.68,2.84-3.75,2.84Z"/>
  <text class="cls-3" transform="translate(0 60.34)"><tspan class="cls-1" x="0" y="0">A</tspan><tspan class="cls-8" x="51.41" y="0">m</tspan><tspan class="cls-11" x="107.91" y="0">a</tspan><tspan class="cls-2" x="144.43" y="0">z</tspan><tspan class="cls-9" x="178.23" y="0">o</tspan><tspan class="cls-6" x="213.93" y="0">n</tspan></text>
  <text class="cls-5" transform="translate(3.18 87.6)"><tspan class="cls-12" x="0" y="0">R</tspan><tspan class="cls-7" x="15.82" y="0">es</tspan><tspan class="cls-10" x="44.81" y="0">t</tspan><tspan class="cls-7" x="54.59" y="0">au</tspan><tspan class="cls-10" x="84.83" y="0">r</tspan><tspan class="cls-7" x="97.47" y="0">ant</tspan></text>
</svg>